<?xml version="1.0" encoding="UTF-8" standalone="no"?>
<svg
   xmlns:dc="http://purl.org/dc/elements/1.1/"
   xmlns:cc="http://creativecommons.org/ns#"
   xmlns:rdf="http://www.w3.org/1999/02/22-rdf-syntax-ns#"
   xmlns:svg="http://www.w3.org/2000/svg"
   xmlns="http://www.w3.org/2000/svg"
   viewBox="0 0 793.70135 1122.52"
   height="1122.52"
   width="793.70135"
   xml:space="preserve"
   id="svg2"
   version="1.1"><metadata
     id="metadata8"><rdf:RDF><cc:Work
         rdf:about=""><dc:format>image/svg+xml</dc:format><dc:type
           rdf:resource="http://purl.org/dc/dcmitype/StillImage" /></cc:Work></rdf:RDF></metadata><defs
     id="defs6"><clipPath
       id="clipPath18"
       clipPathUnits="userSpaceOnUse"><path
         id="path16"
         d="M 0,841.89 H 595.276 V 0 H 0 Z" /></clipPath></defs><g
     transform="matrix(1.3333333,0,0,-1.3333333,0,1122.52)"
     id="g10"><g
       id="g12"><g
         clip-path="url(#clipPath18)"
         id="g14"><path
           id="path20"
           style="fill:#ce1235;fill-opacity:1;fill-rule:nonzero;stroke:none"
           d="M 499.96,369.565 H 86.102 V 511.297 H 499.96 Z" /><text
           id="text24"
           style="font-variant:normal;font-weight:bold;font-stretch:condensed;font-size:24.5px;font-family:'Univers 47 CondensedLight';-inkscape-font-specification:Univers-CondensedBold;writing-mode:lr-tb;fill:#ffffff;fill-opacity:1;fill-rule:nonzero;stroke:none"
           transform="matrix(1,0,0,-1,100.3794,477.8091)"><tspan
             id="tspan22"
             y="0"
             x="0 6.8109999 20.433001 35.4025 40.841499 51.719501 62.5975 73.475502">ISO 9001</tspan></text>
<text
           id="text28"
           style="font-variant:normal;font-weight:bold;font-stretch:condensed;font-size:24.5px;font-family:'Univers 47 CondensedLight';-inkscape-font-specification:Univers-CondensedBold;writing-mode:lr-tb;fill:#ffffff;fill-opacity:1;fill-rule:nonzero;stroke:none"
           transform="matrix(1,0,0,-1,100.3794,449.8091)"><tspan
             id="tspan26"
             y="0"
             x="0 12.25 28.591499 34.030499 44.908501 55.786499 66.664497">EN 9100</tspan></text>
<text
           id="text32"
           style="font-variant:normal;font-weight:bold;font-stretch:condensed;font-size:27px;font-family:'Univers 47 CondensedLight';-inkscape-font-specification:Univers-CondensedBold;writing-mode:lr-tb;fill:#ffffff;fill-opacity:1;fill-rule:nonzero;stroke:none"
           transform="matrix(1,0,0,-1,100.3794,410.8091)"><tspan
             id="tspan30"
             y="0"
             x="0 16.497 32.993999 48.006001 61.506001 78.002998 94.5 100.494 115.506 129.006 144.01801 151.524 163.40401 179.901">BUREAU VERITAS</tspan></text>
<text
           id="text36"
           style="font-variant:normal;font-weight:bold;font-stretch:condensed;font-size:24px;font-family:'Univers 47 CondensedLight';-inkscape-font-specification:Univers-CondensedBold;writing-mode:lr-tb;fill:#ffffff;fill-opacity:1;fill-rule:nonzero;stroke:none"
           transform="matrix(1,0,0,-1,100.3794,383.8091)"><tspan
             id="tspan34"
             y="0"
             x="0 13.344 25.344 33.335999 40.007999 46.68 53.352001 60.023998 72.024002 84.024002 90.695999 97.367996 109.368">Certification</tspan></text>
<path
           id="path38"
           style="fill:#64614f;fill-opacity:1;fill-rule:nonzero;stroke:none"
           d="m 388.028,344.565 h 0.231 c 10.789,0 20.962,1.579 30.785,4.549 10.57,3.68 20.598,11.053 26.653,20.235 9.997,14.621 19.071,42.892 19.466,71.047 v 0.077 c -0.395,28.152 -9.469,56.421 -19.466,71.047 -6.055,9.179 -15.854,16.555 -26.423,20.236 -9.826,2.962 -20.453,4.541 -31.246,4.541 -10.789,0 -21.419,-1.579 -31.242,-4.541 -10.568,-3.681 -20.365,-11.057 -26.423,-20.236 -9.999,-14.626 -19.073,-42.895 -19.467,-71.047 v -0.077 c 0.394,-28.155 9.468,-56.426 19.467,-71.047 6.058,-9.182 15.855,-16.526 26.423,-20.205 9.823,-2.967 20.223,-4.579 31.016,-4.579 z" /><path
           id="path40"
           style="fill:#ffffff;fill-opacity:1;fill-rule:nonzero;stroke:none"
           d="m 459.204,440.434 c 0.344,-21.203 -6.109,-46.935 -12.348,-60.636 -6.888,-15.647 -17.421,-25.17 -32.894,-29.397 -8.336,-2.138 -17.076,-3.234 -26.059,-3.234 -8.986,0 -17.777,1.096 -26.109,3.234 -15.473,4.227 -26.008,13.75 -32.898,29.397 -6.235,13.701 -12.688,39.433 -12.344,60.636 -0.344,21.201 6.109,46.934 12.344,60.635 6.89,15.643 17.425,25.168 32.898,29.4 8.332,2.135 17.123,3.235 26.109,3.235 8.983,0 17.723,-1.1 26.059,-3.235 15.473,-4.232 26.006,-13.757 32.894,-29.4 6.239,-13.701 12.692,-39.434 12.348,-60.635" /><path
           id="path42"
           style="fill:#64614f;fill-opacity:1;fill-rule:nonzero;stroke:none"
           d="m 388.151,511.054 c 7.401,0 14.799,-1.035 21.619,-2.876 7.262,-2.074 13.229,-7.079 16.225,-13.901 6.509,-13.973 10.792,-34.079 10.792,-53.843 0,-19.766 -4.283,-39.871 -10.792,-53.843 -2.996,-6.822 -8.963,-11.824 -16.225,-13.901 -6.82,-1.843 -14.218,-2.877 -21.619,-2.877 h -0.242 c -7.404,0 -14.799,1.034 -21.619,2.877 -7.261,2.077 -13.23,7.079 -16.227,13.901 -6.509,13.972 -10.789,34.077 -10.789,53.843 0,19.764 4.28,39.87 10.789,53.843 2.997,6.822 8.966,11.827 16.227,13.901 6.82,1.841 14.215,2.876 21.619,2.876 z" /><path
           id="path44"
           style="fill:#ffffff;fill-opacity:1;fill-rule:nonzero;stroke:none"
           d="m 398.627,484.074 c -1.031,1.741 -0.187,0.186 -1.258,2.208" /><path
           id="path46"
           style="fill:#ffffff;fill-opacity:1;fill-rule:nonzero;stroke:none"
           d="m 376.606,444.221 v -7.107 l -24.451,-0.008 v 7.108 z" /><path
           id="path48"
           style="fill:#ffffff;fill-opacity:1;fill-rule:nonzero;stroke:none"
           d="m 371.075,382.671 c -0.522,1.125 -0.715,1.527 -0.771,2.678 5.128,0 8.564,0 13.983,-0.004 -0.03,-1.938 -1.134,-3.84 -2.889,-5.104 -1.936,-1.412 -5.162,-1.722 -7.311,-0.521 -1.23,0.584 -2.334,1.785 -3.012,2.951" /><path
           id="path50"
           style="fill:#ffffff;fill-opacity:1;fill-rule:nonzero;stroke:none"
           d="m 386.163,388.356 -7.498,-0.011 v 3.478 l 7.525,0.004 2.37,2.797 c 1.156,-1.344 1.234,-1.439 2.433,-2.797 h 7.516 v -3.482 l -7.525,0.011 v -8.636 h -4.821 z" /><path
           id="path52"
           style="fill:#ffffff;fill-opacity:1;fill-rule:nonzero;stroke:none"
           d="m 387.054,399.136 c 1.542,0.511 3.711,1.396 4.148,2.888 -0.109,2.311 1.477,4.174 2.672,6.016 0.592,0.809 0.672,1.287 0.495,2.156 2.4,-0.092 4.824,-2.09 5.744,-4.332 0.953,-2.275 0.583,-5.256 -0.889,-7.158 -1.842,-2.244 -4.395,-3.412 -7.379,-2.889 -1.873,0.428 -3.712,1.567 -4.791,3.319" /><path
           id="path54"
           style="fill:#ffffff;fill-opacity:1;fill-rule:nonzero;stroke:none"
           d="m 369.017,430.322 c -1.345,0.658 -3.152,0.93 -4.639,0.222 -1.199,-0.332 -2.465,-1.753 -2.582,-3.166 -0.076,-4.232 0.077,-5.538 0,-10.186 -0.076,-0.73 -0.461,-1.076 -1.385,-1.076 -0.768,0.041 -1.342,0.422 -1.333,1.09 v 10.389 c -0.061,1.105 -0.247,2.18 -1.016,3.011 l -5.375,-1.753 -0.494,-0.178 c 1.363,-1.008 1.997,-1.037 2.109,-2.71 l -0.012,-13.292 0.084,-0.703 0.19,-0.461 0.154,-0.424 0.193,-0.346 c 0.883,-1.422 2.381,-1.996 3.434,-2.258 0.461,-0.138 1.273,-0.205 1.736,-0.209 1.393,-0.009 2.713,0.086 4.135,1.084 2.213,1.731 1.726,4.764 1.783,9.174 0.016,1.237 0.098,1.935 0.867,2.643 0.646,0.49 1.537,0.643 2.365,0.46 0.938,-0.253 1.09,-0.33 2.03,-0.945 0.022,3.803 0.136,8.487 -2.244,9.634" /><path
           id="path56"
           style="fill:#ffffff;fill-opacity:1;fill-rule:nonzero;stroke:none"
           d="m 418.899,413.646 c -3.925,3.863 -10.724,9.241 -11.273,11.521 -0.586,1.535 -0.402,3.379 -0.434,5.159 1.134,0.895 2.077,1.669 3.445,2.737 -0.101,-2.72 -0.486,-5.483 0.825,-7.098 3.203,-3.196 6.117,-6.085 9.006,-8.911 1.075,-1.168 1.934,-2.826 1.226,-4.366 -0.336,-0.734 -0.797,-1.566 -1.287,-2.24 0,1.498 -0.655,2.354 -1.508,3.198" /><path
           id="path58"
           style="fill:#ffffff;fill-opacity:1;fill-rule:nonzero;stroke:none"
           d="m 396.669,433.234 c 2.992,0.046 3.961,-0.036 7.076,0.019 v -20.992 h -7.103 z" /><path
           id="path60"
           style="fill:#ffffff;fill-opacity:1;fill-rule:nonzero;stroke:none"
           d="m 412.546,431.289 c 0.754,0.829 1.023,1.136 1.904,1.997 l 1.785,-2.149 v -5.97 c 2.519,1.228 1.904,4.801 1.904,7.903 1.498,-1.221 2.253,-1.91 3.686,-3.256 0.808,-3.573 -1.342,-5.608 -2.948,-8.11 l -6.331,6.051 z" /><path
           id="path62"
           style="fill:#ffffff;fill-opacity:1;fill-rule:nonzero;stroke:none"
           d="m 418.316,447.344 0.954,3.995 3.103,0.461 -0.011,9.919 c -1.197,-0.178 -1.689,-0.309 -2.663,-0.422 v 7.528 c -1.631,-0.341 -3.35,-0.925 -5.071,-1.323 v -12.476 c -0.024,-0.604 -0.981,-0.806 -1.182,-0.797 h -0.261 c -0.617,0 -1.233,0.421 -1.233,0.845 v 12.023 l -4.959,-0.638 v -5.073 c -1.754,-3.562 -4.332,-6.791 -6.854,-10.047 2.674,-0.181 2.87,-0.181 5.532,-0.428 l 1.637,-3.567 z" /><path
           id="path64"
           style="fill:#ffffff;fill-opacity:1;fill-rule:nonzero;stroke:none"
           d="m 361.905,449.814 c -0.076,3.283 -0.216,5.43 -0.288,8.664 1.013,0.277 1.997,-0.368 2.795,-0.952 -0.13,-4.124 -0.13,-4.084 -0.214,-8.398 h -2.274 z" /><path
           id="path66"
           style="fill:#ffffff;fill-opacity:1;fill-rule:nonzero;stroke:none"
           d="m 361.466,468.674 c -0.545,3.232 -0.584,3.472 -0.89,5.834 h -2.061 v 2.275 c 3.56,0.01 5.529,-0.006 9.089,-0.006 l 0.004,-2.269 h -2.115 l -0.926,-7.614 c -0.921,0.829 -1.966,1.412 -3.101,1.78" /><path
           id="path68"
           style="fill:#ffffff;fill-opacity:1;fill-rule:nonzero;stroke:none"
           d="m 361.093,478.41 c -3.033,3.257 -3.256,8.153 -2.672,12.576 l 0.012,0.017 c 0.556,-1.648 1.592,-2.821 3.23,-3.59 -0.184,0.862 -0.953,1.66 -1.199,2.583 -0.707,1.78 -0.647,4.331 0.521,5.899 0.832,1.229 2.016,1.735 3.321,2.15 -0.493,-1.474 -0.645,-3.25 -0.038,-4.747 0.848,0.664 0.894,0.708 1.555,1.338 0.252,0.243 0.365,0.325 0.578,0.478 1.207,-2.579 2.586,-6.148 1.787,-9.159 l -0.503,-1.307 c -0.186,2.134 -0.534,3.151 -1.965,3.934 -0.181,-1.244 0.605,-2.128 0.797,-3.749 0.576,-2.505 0.116,-4.971 -1.428,-6.423 z" /><path
           id="path70"
           style="fill:#ffffff;fill-opacity:1;fill-rule:nonzero;stroke:none"
           d="m 398.627,484.074 -3.144,-3.44 c -0.839,0.806 -0.918,0.897 -1.765,1.782 1.612,1.69 1.775,1.875 3.651,3.866" /><path
           id="path72"
           style="fill:#ffffff;fill-opacity:1;fill-rule:nonzero;stroke:none"
           d="m 402.725,492.447 c 0.649,2.98 0.979,6.412 4.258,7.661 1.235,0.346 2.916,0.183 3.962,-0.738 1.413,-1.014 1.816,-2.735 1.476,-4.331 -0.976,-3.457 -4.83,-4.107 -7.965,-4.937 z" /><path
           id="path74"
           style="fill:#ffffff;fill-opacity:1;fill-rule:nonzero;stroke:none"
           d="m 424.442,444.221 v -7.152 l -24.453,0.037 v 7.108 z" /><path
           id="path76"
           style="fill:#ffffff;fill-opacity:1;fill-rule:nonzero;stroke:none"
           d="m 365.396,396.462 c -0.984,4.516 4.457,6.144 5.748,9.894 1.013,6.268 1.32,12.872 5.681,17.759 0.432,9.22 3.412,17.363 9.955,24.059 -0.305,2.061 -1.165,3.872 -1.777,5.81 -0.861,0.034 -1.441,0.188 -2.215,0.89 -0.568,0.795 -0.8,1.39 -0.949,2.365 -2.276,-2.825 -5.106,-5.991 -8.209,-7.896 -0.572,-0.319 -1.302,0.353 -2.334,1.322 -3.81,3.01 -4.455,9.834 -10.263,9.524 -2.643,0.892 -2.518,3.997 -2.949,6.332 0.983,0.706 2.567,0.672 3.749,0.214 3.625,-1.937 6.039,-6.022 9.463,-8.757 0.918,-0.733 1.743,-1.693 2.588,-2.042 2.246,1.932 4.054,3.593 5.568,6.588 1.06,1.692 2.813,2.43 4.75,2.459 l 1.38,1.629 -0.738,4.058 c -1.407,1.81 -2.579,3.713 -3.531,5.744 0.493,2.335 0.801,5.039 3.166,6.329 1.538,0.951 2.799,-1.228 4.055,0.155 0.922,0.196 1.713,-0.062 2.358,-0.585 0.953,-1.659 2.094,-3.317 2.157,-5.252 -0.589,-1.876 -1.475,-3.627 -2.366,-5.382 -0.205,-0.398 -0.745,-0.521 -1.106,-0.797 0.215,-0.797 0.395,-1.689 0.951,-2.303 0.704,-0.154 1.362,-0.274 2.214,-0.125 0.673,2.061 2.886,2.979 4.732,3.535 l 4.052,2.641 c -0.641,3.074 1.324,5.778 0.219,8.853 -2.307,1.071 -2.973,3.7 -3.471,5.743 0.364,1.291 0.997,2.642 1.917,3.718 l 0.141,-0.153 c 2.21,-2.581 4.239,-5.223 4.943,-8.419 0.401,-4.085 0.802,-8.267 0.523,-12.536 -2.18,-2.182 -4.82,-3.473 -7.313,-5.101 l -1.841,-3.533 c -0.216,-3.657 -1.292,-6.946 -1.844,-10.479 1.566,-4.271 3.433,-9.958 2.058,-13.921 -1.043,-2.358 -3.269,-3.642 -4.92,-4.945 l -4.143,-3.319 c 4.157,-4.594 3.155,-9.8 3.338,-16.455 -0.04,-1.605 2.836,-2.949 1.298,-4.779 -1.281,-2.047 -3.285,-3.715 -2.948,-6.422 -1.272,-2.139 -4.329,-2.6 -5.763,-2.582 -0.308,-0.018 -0.561,0.215 -0.561,0.525 0.309,1.108 1.165,1.965 1.627,3.01 1.475,2.271 0.796,5.408 2.638,7.529 -1.519,4.94 -3.808,9.526 -4.423,14.809 l -0.053,0.322 c -1.228,-2.417 -0.556,-4.797 0.093,-6.705 -4.089,-5.162 -8.519,-10.115 -8.519,-16.908 -1.751,-3.102 -4.24,-5.93 -5.529,-9.219 -0.446,-0.545 -1.254,-0.064 -1.754,0.219 -1.172,0.773 -1.439,1.523 -1.843,2.58" /><path
           id="path78"
           style="fill:#ffffff;fill-opacity:1;fill-rule:nonzero;stroke:none"
           d="m 410.281,418.728 c 3.927,-3.862 10.72,-9.243 11.277,-11.522 0.582,-1.537 0.4,-3.379 0.429,-5.162 -1.134,-0.891 -2.074,-1.668 -3.441,-2.734 0.098,2.718 0.484,5.484 -0.83,7.097 -3.207,3.196 -6.114,6.082 -9.003,8.912 -1.073,1.164 -1.937,2.827 -1.228,4.362 0.337,0.738 0.795,1.567 1.289,2.245 0,-1.499 0.649,-2.355 1.507,-3.198" /><path
           id="path80"
           style="fill:#ffffff;fill-opacity:1;fill-rule:nonzero;stroke:none"
           d="m 416.634,401.083 c -0.75,-0.83 -1.024,-1.135 -1.906,-1.994 l -1.782,2.148 v 5.969 c -2.521,-1.23 -1.904,-4.801 -1.904,-7.902 -1.498,1.218 -2.254,1.91 -3.689,3.256 -0.803,3.57 1.343,5.607 2.95,8.111 l 6.331,-6.053 z" /><path
           id="path82"
           style="fill:#ffffff;fill-opacity:1;fill-rule:nonzero;stroke:none"
           d="m 406.056,382.671 c 0.524,1.125 0.713,1.527 0.769,2.678 -5.128,0 -8.561,0 -13.986,-0.004 0.032,-1.938 1.141,-3.84 2.892,-5.104 1.936,-1.412 5.165,-1.722 7.315,-0.521 1.227,0.584 2.333,1.785 3.01,2.951" /><path
           id="path84"
           style="fill:#64614f;fill-opacity:1;fill-rule:nonzero;stroke:none"
           d="m 390.495,352.165 c -0.068,3.881 3.727,5.842 6.115,8.416 0.649,0.621 0.893,1.85 0.424,2.871 -0.28,0.641 -0.705,0.949 -1.217,1.078 -0.838,0.196 -1.55,0.067 -2.078,-0.396 -0.745,-0.692 -0.949,-1.584 -0.916,-2.553 l -2.644,-0.156 c -0.234,1.469 0.123,2.896 1.021,4.008 1.238,1.324 3.104,1.697 4.916,1.576 1.446,-0.233 3.135,-1.115 3.734,-2.629 0.764,-1.641 0.508,-3.744 -0.71,-5.129 -1.567,-1.672 -3.617,-2.576 -4.914,-4.461 l 6.711,0.395 c 0.047,-0.832 0.095,-1.631 0.14,-2.393 z" /><path
           id="path86"
           style="fill:#64614f;fill-opacity:1;fill-rule:nonzero;stroke:none"
           d="m 366.688,368.933 -0.039,-0.129 -4.374,-13.395 -2.788,0.914 2.998,9.176 0.05,0.156 c -1.11,0.387 -2.454,0.772 -3.54,1.158 l 0.57,1.729 c 1.413,-0.365 2.868,-0.605 4.096,0.412 0.445,0.35 0.523,0.447 0.764,0.717 z" /><path
           id="path88"
           style="fill:#64614f;fill-opacity:1;fill-rule:nonzero;stroke:none"
           d="m 416.417,358.878 c -0.361,-0.416 -0.996,-0.734 -1.683,-0.902 -0.684,-0.174 -1.395,-0.186 -1.905,0.015 -0.691,0.256 -1.166,0.805 -1.34,1.416 -0.266,0.916 0,1.885 0.789,2.436 0.332,0.234 0.822,0.465 1.354,0.605 0.535,0.123 1.077,0.147 1.478,0.094 0.955,-0.119 1.646,-0.855 1.834,-1.789 0.129,-0.619 -0.035,-1.326 -0.527,-1.875 m -5.861,6.455 c -0.33,0.582 -0.336,1.563 0.258,2.145 0.345,0.363 0.85,0.626 1.392,0.755 0.537,0.139 1.111,0.141 1.582,-0.021 0.794,-0.24 1.246,-1.109 1.225,-1.777 -0.007,-0.522 -0.245,-0.932 -0.578,-1.25 -0.344,-0.301 -0.817,-0.522 -1.321,-0.635 -0.501,-0.137 -1.021,-0.16 -1.47,-0.055 -0.44,0.131 -0.84,0.379 -1.088,0.838 m 9.221,-3.822 c -0.35,1.316 -1.081,2.379 -2.555,2.801 l -0.852,0.187 c 0.871,0.617 1.676,1.859 1.381,3.07 -0.198,1.381 -1.2,2.262 -2.449,2.741 -1.094,0.328 -2.381,0.277 -3.598,-0.045 -1.228,-0.282 -2.391,-0.83 -3.206,-1.633 -0.883,-1.008 -1.36,-2.25 -0.895,-3.569 0.302,-1.209 1.595,-1.931 2.65,-2.074 l -0.664,-0.56 c -1.115,-1.061 -1.264,-2.34 -0.961,-3.67 0.334,-1.485 1.523,-2.641 2.969,-3.069 1.091,-0.283 2.418,-0.269 3.693,0.043 1.272,0.317 2.453,0.92 3.285,1.678 1.083,1.055 1.596,2.627 1.202,4.1" /><path
           id="path90"
           style="fill:#64614f;fill-opacity:1;fill-rule:nonzero;stroke:none"
           d="m 379.567,354.964 c -0.464,-0.287 -1.166,-0.406 -1.871,-0.36 -0.707,0.038 -1.39,0.241 -1.816,0.584 -0.582,0.448 -0.873,1.116 -0.856,1.752 0.018,0.946 0.559,1.799 1.476,2.088 0.39,0.123 0.924,0.198 1.474,0.172 0.55,-0.041 1.07,-0.178 1.44,-0.349 0.876,-0.399 1.312,-1.309 1.218,-2.252 -0.061,-0.633 -0.432,-1.258 -1.065,-1.635 m -3.671,7.91 c -0.145,0.656 0.144,1.588 0.886,1.969 0.436,0.246 1,0.345 1.554,0.308 0.552,-0.031 1.101,-0.197 1.501,-0.494 0.691,-0.467 0.863,-1.428 0.642,-2.062 -0.16,-0.496 -0.512,-0.815 -0.921,-1.022 -0.421,-0.185 -0.937,-0.254 -1.454,-0.213 -0.517,0.022 -1.023,0.155 -1.417,0.389 -0.383,0.254 -0.692,0.613 -0.791,1.125 m 7.665,-6.398 c 0.055,1.363 -0.323,2.591 -1.606,3.439 l -0.755,0.43 c 1.012,0.328 2.151,1.277 2.235,2.517 0.218,1.379 -0.477,2.518 -1.525,3.348 -0.949,0.641 -2.191,0.973 -3.448,1.027 -1.256,0.098 -2.529,-0.084 -3.549,-0.603 -1.142,-0.697 -1.969,-1.744 -1.918,-3.137 -0.069,-1.244 0.949,-2.324 1.916,-2.773 l -0.805,-0.334 c -1.377,-0.684 -1.898,-1.862 -2.007,-3.219 -0.122,-1.52 0.666,-2.977 1.92,-3.815 0.958,-0.595 2.226,-0.976 3.537,-1.054 1.308,-0.078 2.617,0.142 3.642,0.621 1.342,0.685 2.301,2.029 2.363,3.553" /><path
           id="path92"
           style="fill:#64614f;fill-opacity:1;fill-rule:nonzero;stroke:none"
           d="m 446.646,492.44 -13.04,-5.624 -1.173,2.72 13.038,5.624 z" /><path
           id="path94"
           style="fill:#64614f;fill-opacity:1;fill-rule:nonzero;stroke:none"
           d="m 397.511,514.991 -3.354,14.611 3.09,-0.311 c 0.623,-3.617 1.258,-7.725 1.988,-10.768 1.325,2.837 2.777,6.731 4.112,10.147 l 3.043,-0.306 -6.178,-13.648 z" /><path
           id="path96"
           style="fill:#64614f;fill-opacity:1;fill-rule:nonzero;stroke:none"
           d="m 342.032,506.616 -3.168,-5.665 -2.67,1.492 3.627,6.505 -2.05,1.152 -5.083,-9.109 12.399,-6.924 5.084,9.11 -2.059,1.144 -3.639,-6.519 -3.467,1.946 3.179,5.678 z" /><path
           id="path98"
           style="fill:#64614f;fill-opacity:1;fill-rule:nonzero;stroke:none"
           d="m 332.634,439.853 -3.961,-0.007 h -0.026 c 0.067,3.159 -0.421,5.01 1.454,5.376 0.656,0.174 1.469,0.113 1.949,-0.383 0.801,-0.772 0.553,-2.065 0.584,-4.986 m -6.127,-0.008 -3.483,-0.003 c 0.1,3.261 -0.436,4.997 1.557,5.216 1.179,0.085 1.506,-0.182 1.772,-0.887 0.224,-0.734 0.156,-1.498 0.154,-4.326 m 8.004,6.432 c -0.666,1.525 -2.31,2.131 -4.008,2.046 -1.438,-0.162 -2.524,-1.138 -3.127,-2.621 -0.221,0.871 -1.023,1.96 -2.387,2.119 -1.425,0.176 -2.783,-0.209 -3.471,-1.415 -0.939,-1.204 -0.535,-6.485 -0.632,-9.529 l 14.105,0.014 0.006,1.032 c -0.075,5.61 0.244,6.279 -0.486,8.354" /><path
           id="path100"
           style="fill:#64614f;fill-opacity:1;fill-rule:nonzero;stroke:none"
           d="m 446.766,484.543 2.258,0.582 2.854,-11.106 -2.254,-0.58 -1.057,4.107 -11.404,-2.933 -0.736,2.864 11.398,2.939 z" /><path
           id="path102"
           style="fill:#64614f;fill-opacity:1;fill-rule:nonzero;stroke:none"
           d="m 375.074,514.167 c -1.577,-0.265 -3.202,-0.113 -4.512,0.69 -1.126,0.656 -1.53,1.501 -1.739,2.54 l -1.63,10.144 2.89,0.464 1.637,-10.142 c 0.166,-0.834 0.896,-1.345 1.666,-1.5 0.427,-0.109 0.9,-0.103 1.359,-0.016" /><path
           id="path104"
           style="fill:#64614f;fill-opacity:1;fill-rule:nonzero;stroke:none"
           d="m 375.111,514.174 c 1.579,0.243 3.077,0.897 4.07,2.066 0.86,0.975 0.983,1.906 0.857,2.958 l -1.628,10.142 -2.891,-0.46 1.621,-10.149 c 0.113,-0.763 -0.432,-1.554 -1.112,-1.943 -0.373,-0.238 -0.822,-0.38 -1.283,-0.441" /><path
           id="path106"
           style="fill:#64614f;fill-opacity:1;fill-rule:nonzero;stroke:none"
           d="m 445.12,459.952 -0.492,3.505 6.127,-0.927 0.023,0.002 -0.011,-0.005 0.013,-0.003 -0.025,-0.002 z m 8.201,4.472 -14.746,2.963 0.403,-2.879 3.21,-0.59 0.709,-5.081 -2.923,-1.445 0.4,-2.88 13.371,6.89 z" /><path
           id="path108"
           style="fill:#64614f;fill-opacity:1;fill-rule:nonzero;stroke:none"
           d="m 451.187,440.03 0.265,0.046 0.324,0.086 0.235,0.078 c 0.935,0.51 1.156,1.757 1.106,2.775 -0.037,1.028 -0.352,2.07 -1.317,2.439 -0.496,0.139 -1.135,0.182 -1.464,-0.334 -1.597,-2.369 -0.487,-7.399 -4.62,-8.283 -1.801,-0.296 -3.378,0.485 -4.311,1.925 -1.287,2.29 -1.388,5.866 0.076,8.081 0.886,1.157 2.088,1.863 3.528,1.874 l 0.169,-2.718 c -0.886,-0.117 -1.759,-0.571 -2.163,-1.438 -0.6,-1.424 -0.454,-3.688 0.588,-4.525 0.381,-0.429 1.265,-0.377 1.748,-0.12 1.637,1.18 1.308,4.115 2.126,6.083 0.282,0.834 1.047,1.688 1.832,2.105 1.45,0.624 3.321,0.402 4.487,-0.757 1.888,-1.781 1.98,-5.275 1.1,-7.398 -0.492,-1.472 -2.086,-2.55 -3.748,-2.651 l -0.17,2.727 z" /><path
           id="path110"
           style="fill:#64614f;fill-opacity:1;fill-rule:nonzero;stroke:none"
           d="m 336.913,461.443 c -0.234,-1.58 -0.884,-3.08 -2.054,-4.077 -0.971,-0.866 -1.899,-0.99 -2.952,-0.869 l -10.149,1.594 0.454,2.893 10.149,-1.585 c 0.847,-0.102 1.555,0.436 1.941,1.118 0.236,0.376 0.377,0.823 0.437,1.286" /><path
           id="path112"
           style="fill:#64614f;fill-opacity:1;fill-rule:nonzero;stroke:none"
           d="m 336.919,461.478 c 0.261,1.579 0.101,3.204 -0.704,4.514 -0.66,1.121 -1.507,1.523 -2.546,1.729 l -10.148,1.594 -0.456,-2.893 10.15,-1.602 c 0.761,-0.131 1.345,-0.89 1.503,-1.659 0.11,-0.427 0.103,-0.899 0.021,-1.358" /><path
           id="path114"
           style="fill:#64614f;fill-opacity:1;fill-rule:nonzero;stroke:none"
           d="m 354.394,512.972 -1.574,5.992 -0.012,0.022 0.008,-0.009 -0.003,0.014 0.015,-0.023 4.59,-4.158 z m -1.726,9.186 -2.608,-1.584 3.121,-14.714 2.484,1.509 -0.728,3.178 4.383,2.665 2.488,-2.112 2.48,1.508 z" /><path
           id="path116"
           style="fill:#64614f;fill-opacity:1;fill-rule:nonzero;stroke:none"
           d="m 421.576,517.54 -5.988,2.507 1.183,2.821 6.871,-2.868 0.914,2.167 -9.628,4.022 -5.478,-13.103 9.626,-4.021 0.905,2.173 -6.888,2.88 1.538,3.663 6.005,-2.516 z" /><path
           id="path118"
           style="fill:#64614f;fill-opacity:1;fill-rule:nonzero;stroke:none"
           d="m 332.308,480.992 -3.557,1.059 c 0.774,2.427 1.119,4.87 2.83,4.718 0.686,-0.111 1.16,-0.294 1.559,-0.789 0.665,-0.828 -0.19,-2.642 -0.832,-4.988 m 2.832,5.082 c -0.009,0.975 -0.065,1.788 -0.873,2.566 -0.78,0.807 -2.018,1.183 -3.24,1.089 -3.159,-0.488 -3.579,-4.12 -5.326,-9.857 l 13.599,-4.055 0.844,2.834 -5.37,1.602 -0.224,0.07 c 0.37,1.305 0.893,2.963 1.154,3.32 0.979,2.253 4.584,0.039 6.007,0.257 l 0.837,2.812 c -2.434,-0.134 -5.688,2.038 -7.408,-0.638" /><path
           id="path120"
           style="fill:#64614f;fill-opacity:1;fill-rule:nonzero;stroke:none"
           d="m 436.478,505.525 c -0.493,-0.487 -0.922,-0.763 -1.556,-0.797 -1.064,-0.051 -2.025,1.711 -3.545,3.61 l 2.952,2.251 c 1.505,-2.051 3.279,-3.77 2.149,-5.064 m -2.122,8.812 -11.273,-8.609 1.791,-2.35 4.455,3.399 0.19,0.139 c 0.837,-1.066 1.869,-2.466 2.003,-2.887 1.25,-2.113 -2.662,-3.73 -3.322,-5.005 l 1.779,-2.333 c 1.321,2.048 4.993,3.398 3.845,6.368 0.792,-0.566 1.487,-1.003 2.585,-0.806 1.112,0.156 2.146,0.935 2.789,1.978 1.463,2.841 -1.226,5.316 -4.842,10.106" /></g></g></g></svg>