<?xml version="1.0" encoding="utf-8"?>
<svg viewBox="60.82 77.17 48.44 15.74" xmlns="http://www.w3.org/2000/svg">
  <defs>
    <style type="text/css">
	.st0{fill:#0F1233;}
	.st1{fill:#0FF2B2;}
	.st2{clip-path:url(#SVGID_00000057139372908982451810000016168642669013263765_);fill:#0F1233;}
	.st3{fill:#088C8A;}
</style>
  </defs>
  <polygon class="st0" points="60.82,77.47 60.82,91.41 69.18,91.41 69.18,88.61 63.83,88.61 63.83,77.47 "/>
  <polygon class="st0" points="102.7,83.19 105.92,91.41 109.26,91.41 104.37,78.94 "/>
  <polygon class="st1" points="100.46,77.49 95.83,89.31 98.14,91.92 103.8,77.49 "/>
  <g>
    <defs>
      <rect id="SVGID_1_" x="60.82" y="77.17" width="48.44" height="15.74"/>
    </defs>
    <clipPath id="SVGID_00000181767813863668109240000001512517711811204249_">
      <rect x="60.82" y="77.17" width="48.44" height="15.74" transform="matrix(1, 0, 0, 1, 0, 0)" style="overflow: visible;"/>
    </clipPath>
    <path style="clip-path:url(#SVGID_00000181767813863668109240000001512517711811204249_);fill:#0F1233;" d="M73.43,83.87 L73.43,83.87L73.43,83.87L73.43,83.87z M80.66,82.09c0-2.69-2.09-4.61-4.92-4.61h-5.68v13.94h3.03V80.26h2.44 c1.28,0,2.04,0.76,2.04,1.8c0,1.04-0.76,1.8-2.04,1.8h-2.12l4.39,7.54h3.39l-3.1-5.27C79.66,85.4,80.66,83.91,80.66,82.09"/>
    <path style="clip-path:url(#SVGID_00000181767813863668109240000001512517711811204249_);fill:#0F1233;" d="M96.07,84.46 c0-4.17-3.18-7.29-7.43-7.29c-4.26,0-7.46,3.14-7.46,7.29c0,4.15,3.19,7.29,7.46,7.29c0.86,0,1.66-0.16,2.41-0.4l-2.19-2.48 c-0.07,0-0.14,0.02-0.22,0.02c-2.49,0-4.39-1.92-4.39-4.44s1.9-4.44,4.39-4.44c2.49,0,4.36,1.9,4.36,4.44 c0,1.93-1.09,3.49-2.71,4.13l1.95,2.31C94.56,89.69,96.07,87.32,96.07,84.46"/>
  </g>
  <polygon class="st3" points="87.29,85.5 93.9,92.91 97.65,92.91 97.65,92.91 91.05,85.5 "/>
</svg>